<svg width="105" height="105" viewBox="0 0 105 105" fill="none" xmlns="http://www.w3.org/2000/svg">
<path d="M52.653 14.7656C48.2869 14.7656 44.7476 18.1653 44.7476 22.3591C44.7476 26.5528 48.2869 29.9525 52.653 29.9525C57.0174 29.9484 60.5543 26.5511 60.5585 22.3591C60.5585 18.1653 57.0192 14.7656 52.653 14.7656ZM52.653 27.4213C49.7423 27.4213 47.3827 25.1549 47.3827 22.3591C47.3827 19.5632 49.7423 17.2968 52.653 17.2968C55.5638 17.2968 57.9234 19.5632 57.9234 22.3591C57.9234 25.1549 55.5638 27.4213 52.653 27.4213Z" fill="#82DE00"/>
<path d="M57.9235 31.2227H57.6125L57.3345 31.3555C54.3863 32.7655 50.92 32.7655 47.9718 31.3555L47.6938 31.2227H47.3828C43.7463 31.2268 40.7992 34.0575 40.7949 37.5505V45.1439C40.7949 47.2408 42.5646 48.9407 44.7477 48.9407H60.5586C62.7417 48.9407 64.5114 47.2408 64.5114 45.1439V37.5505C64.5071 34.0575 61.56 31.2268 57.9235 31.2227ZM61.8762 45.1439C61.8762 45.8429 61.2863 46.4095 60.5586 46.4095H44.7477C44.02 46.4095 43.4301 45.8429 43.4301 45.1439V37.5505C43.4304 35.5585 45.0334 33.9054 47.1022 33.7639C50.6226 35.3332 54.6839 35.3332 58.2041 33.7639C60.2727 33.9054 61.8759 35.5585 61.8762 37.5505V45.1439Z" fill="#82DE00"/>
<path d="M80.3205 56.5273C75.9544 56.5273 72.415 59.927 72.415 64.1208C72.415 68.3146 75.9544 71.7142 80.3205 71.7142C84.6867 71.7142 88.226 68.3146 88.226 64.1208C88.2217 59.9287 84.6848 56.5315 80.3205 56.5273ZM80.3205 69.1831C77.4098 69.1831 75.0502 66.9166 75.0502 64.1208C75.0502 61.325 77.4098 59.0585 80.3205 59.0585C83.2312 59.0585 85.5909 61.325 85.5909 64.1208C85.5909 66.9166 83.2312 69.1831 80.3205 69.1831Z" fill="#82DE00"/>
<path d="M85.5919 72.9805H85.281L85.003 73.107C82.0547 74.5169 78.5885 74.5169 75.6402 73.107L75.3622 72.9805H75.0513C71.4148 72.9846 68.4677 75.8153 68.4634 79.3083V86.9017C68.4634 88.9986 70.2331 90.6985 72.4161 90.6985H88.2271C90.4102 90.6985 92.1799 88.9986 92.1799 86.9017V79.3083C92.1756 75.8153 89.2285 72.9846 85.5919 72.9805ZM89.5447 86.9017C89.5447 87.6007 88.9547 88.1673 88.2271 88.1673H72.4161C71.6885 88.1673 71.0985 87.6007 71.0985 86.9017V79.3083C71.0989 77.3163 72.7019 75.6632 74.7706 75.5217C78.2911 77.091 82.3522 77.091 85.8726 75.5217C87.9414 75.6632 89.5444 77.3163 89.5447 79.3083V86.9017Z" fill="#82DE00"/>
<path d="M24.9831 56.5273C20.617 56.5273 17.0776 59.927 17.0776 64.1208C17.0776 68.3146 20.617 71.7142 24.9831 71.7142C29.3493 71.7142 32.8886 68.3146 32.8886 64.1208C32.8843 59.9287 29.3474 56.5315 24.9831 56.5273ZM24.9831 69.1831C22.0724 69.1831 19.7128 66.9166 19.7128 64.1208C19.7128 61.325 22.0724 59.0585 24.9831 59.0585C27.8938 59.0585 30.2534 61.325 30.2534 64.1208C30.2534 66.9166 27.8938 69.1831 24.9831 69.1831Z" fill="#82DE00"/>
<path d="M30.2536 72.9805H29.9426L29.6646 73.107C26.7163 74.5169 23.2501 74.5169 20.3019 73.107L20.0239 72.9805H19.7129C16.0764 72.9846 13.1293 75.8153 13.125 79.3083V86.9017C13.125 88.9986 14.8947 90.6985 17.0777 90.6985H32.8887C35.0718 90.6985 36.8415 88.9986 36.8415 86.9017V79.3083C36.8372 75.8153 33.8901 72.9846 30.2536 72.9805ZM34.2063 86.9017C34.2063 87.6007 33.6164 88.1673 32.8887 88.1673H17.0777C16.3501 88.1673 15.7602 87.6007 15.7602 86.9017V79.3083C15.7605 77.3163 17.3635 75.6632 19.4323 75.5217C22.9527 77.091 27.0138 77.091 30.5342 75.5217C32.603 75.6632 34.206 77.3163 34.2063 79.3083V86.9017Z" fill="#82DE00"/>
<path d="M65.7247 79.0326C65.724 79.0311 65.7233 79.0297 65.7227 79.0281C65.4374 78.3851 64.6635 78.0859 63.9942 78.3599C58.0445 80.755 51.4368 81.1919 45.2015 79.6027L46.4348 79.2547C47.1334 79.0582 47.534 78.3552 47.3294 77.6841C47.1249 77.013 46.3929 76.6283 45.6943 76.8248L40.424 78.3093C40.4042 78.3093 40.3897 78.3308 40.3713 78.3371C40.2492 78.3808 40.1346 78.4419 40.0313 78.5181C39.9856 78.5418 39.9416 78.5684 39.8996 78.5978C39.7606 78.717 39.6504 78.8638 39.5768 79.0281C39.5053 79.1936 39.4712 79.3717 39.4766 79.5508C39.5088 79.7221 39.5527 79.8913 39.6084 80.057C39.6163 80.0748 39.6084 80.095 39.6229 80.1127L42.2581 84.9561C42.595 85.576 43.3913 85.8163 44.0368 85.4927C44.6822 85.169 44.9324 84.4041 44.5954 83.7842L43.5229 81.8149C50.6072 83.8604 58.2131 83.4629 65.0245 80.6911C65.6945 80.4188 66.0081 79.6763 65.7247 79.0326Z" fill="#82DE00"/>
<path d="M87.8408 48.041C87.3262 47.547 86.4922 47.547 85.9777 48.041L84.1133 49.8318C83.0224 38.747 75.6955 29.1277 65.0268 24.7735C64.3573 24.4995 63.5834 24.7986 63.2982 25.4417C63.0129 26.0848 63.3244 26.8281 63.9939 27.1021C73.5644 31.0091 80.2172 39.5473 81.4215 49.4686L79.9353 48.041C79.4119 47.5554 78.5778 47.5693 78.0722 48.072C77.5791 48.5624 77.5791 49.34 78.0722 49.8305L82.025 53.6273C82.5388 54.1221 83.3732 54.1232 83.8883 53.6295C83.8892 53.6287 83.89 53.6279 83.8906 53.6273L87.8434 49.8305C88.3571 49.3357 88.3559 48.5346 87.8408 48.041Z" fill="#82DE00"/>
<path d="M42.0743 25.7189C42.0701 25.645 42.0587 25.5718 42.0401 25.4999C42.0401 25.4885 42.0256 25.481 42.0203 25.4683C42.0151 25.4556 42.0203 25.4468 42.0203 25.4367C41.9844 25.3751 41.9429 25.3166 41.8965 25.262C41.8538 25.1878 41.8034 25.1179 41.7463 25.0532C41.6684 24.9869 41.5821 24.9304 41.4893 24.8849C41.4431 24.8471 41.3937 24.8127 41.3418 24.7824L36.0714 22.4702C35.3983 22.2047 34.6285 22.5137 34.3522 23.1602C34.0908 23.7716 34.3634 24.4734 34.9779 24.771L37.7066 25.9695C27.4339 31.2502 21.0238 41.536 21.0313 52.7275C21.0313 53.4264 21.6212 53.993 22.3488 53.993C23.0765 53.993 23.6664 53.4264 23.6664 52.7275C23.6598 42.8729 29.0851 33.7515 37.9266 28.7525L36.974 30.6647C36.6599 31.2939 36.9351 32.0485 37.5893 32.3517C37.767 32.4351 37.962 32.4785 38.1598 32.4783C38.6658 32.4777 39.1266 32.1988 39.3456 31.7607L41.9808 26.4795C41.9808 26.4668 41.9808 26.4529 41.9913 26.4403C42.0256 26.3537 42.0495 26.2637 42.0625 26.172C42.0851 26.1038 42.1019 26.034 42.1126 25.9631C42.1081 25.8807 42.0954 25.7989 42.0743 25.7189Z" fill="#82DE00"/>
</svg>
