<svg width="99" height="99" viewBox="0 0 99 99" fill="none" xmlns="http://www.w3.org/2000/svg">
<path d="M36.2957 66.4027L36.2958 66.4025L36.289 66.3972C30.7595 62.0965 27.9943 55.9546 27.9938 49.1926C28.302 37.5192 37.8255 28.302 49.1926 27.9938C55.0335 27.9942 60.5622 30.1462 64.5533 34.1373C68.5487 38.1327 71.0062 43.6639 71.0062 49.5C71.0062 55.9541 68.2407 62.0959 63.0214 66.0871L63.0204 66.0878C60.1992 68.2821 58.6313 71.7291 58.6313 74.8688V81.9844C58.6313 84.3765 56.5328 86.475 54.1406 86.475H44.8594C42.7825 86.475 40.3687 84.692 40.3687 81.0563V74.5594C40.3687 71.4122 38.7947 68.5894 36.2957 66.4027ZM30.7876 49.1859L30.7875 49.1859V49.1906C30.7875 55.1083 33.2789 60.7238 37.9612 64.1592C41.3313 66.9178 43.1625 70.5883 43.1625 74.5594V81.0563V81.0617C43.1625 81.3706 43.1625 82.0103 43.3646 82.5762C43.4669 82.8628 43.6243 83.1401 43.8683 83.3461C44.115 83.5545 44.4401 83.6813 44.8594 83.6813H54.1406C54.6388 83.6813 55.0656 83.5145 55.3682 83.2119C55.6708 82.9093 55.8375 82.4825 55.8375 81.9844V74.8688C55.8375 70.8969 57.9788 66.6072 61.3501 63.8483C65.7182 60.4156 68.2125 55.1125 68.2125 49.5C68.2125 44.5103 66.3405 39.8315 62.5998 36.0908C59.1672 32.6582 54.4878 30.7875 49.5 30.7875C39.5163 30.7875 31.0994 39.2077 30.7876 49.1859Z" fill="#82DE00" stroke="#414664" stroke-width="0.3"/>
<path d="M57.2344 77.1937H41.7656C41.3356 77.1937 40.989 77.0511 40.7502 76.8123C40.5114 76.5735 40.3688 76.2269 40.3688 75.7969C40.3688 75.3669 40.5114 75.0202 40.7502 74.7815C40.989 74.5427 41.3356 74.4 41.7656 74.4H57.2344C57.6644 74.4 58.011 74.5427 58.2498 74.7815C58.4886 75.0202 58.6313 75.3669 58.6313 75.7969C58.6313 76.2269 58.4886 76.5735 58.2498 76.8123C58.011 77.0511 57.6644 77.1937 57.2344 77.1937Z" fill="#82DE00" stroke="#414664" stroke-width="0.3"/>
<path d="M49.5 21.5063C49.07 21.5063 48.7234 21.3636 48.4846 21.1248C48.2458 20.886 48.1031 20.5394 48.1031 20.1094V13.9219C48.1031 13.4919 48.2458 13.1452 48.4846 12.9065C48.7234 12.6677 49.07 12.525 49.5 12.525C49.93 12.525 50.2766 12.6677 50.5154 12.9065C50.7542 13.1452 50.8969 13.4919 50.8969 13.9219V20.1094C50.8969 20.5394 50.7542 20.886 50.5154 21.1248C50.2766 21.3636 49.93 21.5063 49.5 21.5063Z" fill="#82DE00" stroke="#414664" stroke-width="0.3"/>
<path d="M69.835 30.7875C69.673 30.7875 69.4432 30.7872 69.2156 30.7485C68.9848 30.7092 68.7811 30.6341 68.6531 30.5034C68.0656 29.9035 68.0656 29.0094 68.6531 28.4095L73.1648 23.8018C73.7505 23.2036 74.6206 23.2036 75.2063 23.8018C75.7937 24.4017 75.7937 25.2958 75.2063 25.8957L70.7122 30.4855L70.7071 30.488C70.6895 30.4966 70.6639 30.5091 70.6321 30.5241C70.5683 30.5542 70.4801 30.5942 70.3825 30.6341C70.2845 30.6741 70.179 30.7132 70.08 30.7421C69.9786 30.7717 69.8941 30.7875 69.835 30.7875Z" fill="#82DE00" stroke="#414664" stroke-width="0.3"/>
<path d="M85.0781 50.8969H78.8906C78.4606 50.8969 78.114 50.7542 77.8752 50.5154C77.6364 50.2766 77.4938 49.93 77.4938 49.5C77.4938 49.07 77.6364 48.7234 77.8752 48.4846C78.114 48.2458 78.4606 48.1031 78.8906 48.1031H85.0781C85.5081 48.1031 85.8548 48.2458 86.0935 48.4846C86.3323 48.7234 86.475 49.07 86.475 49.5C86.475 49.93 86.3323 50.2766 86.0935 50.5154C85.8548 50.7542 85.5081 50.8969 85.0781 50.8969Z" fill="#82DE00" stroke="#414664" stroke-width="0.3"/>
<path d="M75.212 75.3902L75.1635 75.4348V75.5007C75.1635 75.5456 75.1524 75.5603 75.1452 75.5676C75.1338 75.5795 75.1058 75.5981 75.0382 75.6137C74.8979 75.6459 74.6776 75.6469 74.3467 75.6469C74.1847 75.6469 73.9538 75.6466 73.7249 75.6116C73.4918 75.5759 73.2868 75.5075 73.1591 75.3902L68.6474 71.2433C68.3535 70.9731 68.2125 70.6419 68.2125 70.317C68.2125 69.9921 68.3535 69.6609 68.6474 69.3907C69.2345 68.851 70.1131 68.851 70.7003 69.3907L75.212 73.5376C75.5059 73.8078 75.6469 74.139 75.6469 74.4639C75.6469 74.7888 75.5059 75.12 75.212 75.3902Z" fill="#82DE00" stroke="#414664" stroke-width="0.3"/>
<path d="M24.7983 75.6469C24.6524 75.6469 24.4468 75.6466 24.2434 75.612C24.0368 75.5768 23.8572 75.51 23.7454 75.3957C23.2224 74.8616 23.2224 74.0662 23.7454 73.5321L27.8059 69.3852C28.3272 68.8529 29.1006 68.8529 29.6218 69.3852C30.1448 69.9193 30.1448 70.7147 29.6218 71.2488L25.5613 75.3957C25.3179 75.6443 25.0857 75.6469 24.7983 75.6469Z" fill="#82DE00" stroke="#414664" stroke-width="0.3"/>
<path d="M20.1094 50.8969H13.9219C13.4919 50.8969 13.1452 50.7542 12.9065 50.5154C12.6677 50.2766 12.525 49.93 12.525 49.5C12.525 49.07 12.6677 48.7234 12.9065 48.4846C13.1452 48.2458 13.4919 48.1031 13.9219 48.1031H20.1094C20.5394 48.1031 20.886 48.2458 21.1248 48.4846C21.3636 48.7234 21.5063 49.07 21.5063 49.5C21.5063 49.93 21.3636 50.2766 21.1248 50.5154C20.886 50.7542 20.5394 50.8969 20.1094 50.8969Z" fill="#82DE00" stroke="#414664" stroke-width="0.3"/>
<path d="M23.7521 25.7888L23.7521 25.7888L23.7486 25.785C23.2213 25.211 23.2213 24.3521 23.7486 23.7781C24.0127 23.4908 24.3362 23.3531 24.6533 23.3531C24.9705 23.3531 25.294 23.4908 25.558 23.7781L29.6185 28.1978C30.1459 28.7718 30.1459 29.6306 29.6185 30.2046C29.4716 30.3646 29.3341 30.5138 29.1991 30.624C29.0617 30.7362 28.9508 30.7875 28.8589 30.7875C28.7129 30.7875 28.5081 30.7872 28.3056 30.7504C28.1014 30.7134 27.9233 30.6433 27.8108 30.5221L23.7521 25.7888Z" fill="#82DE00" stroke="#414664" stroke-width="0.3"/>
<path d="M61.875 50.8969C61.445 50.8969 61.0984 50.7542 60.8596 50.5154C60.6208 50.2766 60.4781 49.93 60.4781 49.5C60.4781 43.539 55.461 38.5219 49.5 38.5219C49.07 38.5219 48.7234 38.3792 48.4846 38.1404C48.2458 37.9016 48.1031 37.555 48.1031 37.125C48.1031 36.695 48.2458 36.3484 48.4846 36.1096C48.7234 35.8708 49.07 35.7281 49.5 35.7281C57.1515 35.7281 63.2719 41.8485 63.2719 49.5C63.2719 49.93 63.1292 50.2766 62.8904 50.5154C62.6516 50.7542 62.305 50.8969 61.875 50.8969Z" fill="#82DE00" stroke="#414664" stroke-width="0.3"/>
</svg>
