<svg width="102" height="102" viewBox="0 0 102 102" fill="none" xmlns="http://www.w3.org/2000/svg">
<mask id="path-1-inside-1" fill="white">
<path d="M87.0088 48.7588H82.0482V41.3976C82.0482 36.182 77.8285 31.9546 72.6053 31.9546H70.0454V19.7923C70.0454 15.9092 66.886 12.75 63.0029 12.75H58.2018H34.1958H29.3947C25.5366 12.75 22.3524 15.868 22.3524 19.7923V36.7558H19.7925C15.9286 36.7559 12.75 39.8787 12.75 43.7982C12.75 46.3432 14.1071 48.577 16.1354 49.8144C15.5107 50.8655 15.1505 52.0916 15.1505 53.4006C15.1505 55.9438 16.5058 58.1762 18.5317 59.4143C17.8927 60.489 17.5511 61.7194 17.5511 63.003C17.5511 65.702 19.03 67.859 20.9348 69.0222C20.3111 70.0727 19.9516 71.2976 19.9516 72.6054C19.9516 74.7114 20.8822 76.6033 22.3521 77.8948V82.2077C22.3524 86.0908 25.5116 89.25 29.3947 89.25H63.0029C64.8852 89.25 66.6538 88.517 67.9812 87.1878C69.3122 85.8583 70.0452 84.0897 70.0452 82.2075V79.6476H72.6053C77.0403 79.6476 80.7708 76.5745 81.7796 72.4458H87.0088C88.2465 72.4458 89.25 71.4424 89.25 70.2046V51C89.25 49.7623 88.2465 48.7588 87.0088 48.7588ZM36.4371 17.2324H55.9605V19.7923C55.9605 21.1874 54.8326 22.3522 53.4005 22.3522H38.9971C37.5991 22.3522 36.4371 21.2216 36.4371 19.7923V17.2324ZM17.2324 43.7982C17.2324 42.403 18.3608 41.2383 19.7925 41.2383H22.3524V46.3583H19.7925C18.381 46.3582 17.2324 45.2098 17.2324 43.7982ZM19.6329 53.4006C19.6329 51.989 20.7815 50.8406 22.193 50.8406H29.3947C30.8062 50.8406 31.9546 51.989 31.9546 53.4006C31.9546 54.8121 30.8062 55.9605 29.3947 55.9605H22.193C20.7815 55.9605 19.6329 54.8121 19.6329 53.4006V53.4006ZM22.0337 63.0029C22.0337 61.6075 23.1619 60.443 24.5936 60.443H29.3947C30.7929 60.443 31.9546 61.5736 31.9546 63.0029C31.9546 64.4011 30.8243 65.5628 29.3947 65.5628H24.5936C23.1954 65.5629 22.0337 64.4323 22.0337 63.0029V63.0029ZM24.4342 72.6053C24.4342 71.1938 25.5826 70.0454 26.9941 70.0454C28.4056 70.0454 29.5542 71.1938 29.5542 72.6053C29.5542 74.0168 28.4056 75.1652 26.9941 75.1652C25.5826 75.1652 24.4342 74.0168 24.4342 72.6053ZM65.5629 82.2077C65.5629 83.6027 64.435 84.7676 63.0029 84.7676H29.3947C27.9832 84.7676 26.8347 83.6192 26.8347 82.2077V79.6437C26.8879 79.6449 26.9406 79.6478 26.9939 79.6478C30.8771 79.6478 34.0364 76.4885 34.0364 72.6054C34.0364 71.2978 33.6769 70.073 33.0534 69.0225C34.4237 68.1858 36.4371 66.2147 36.4371 63.003C36.4371 61.2018 35.7642 59.5057 34.5419 58.2C35.7163 56.9413 36.4371 55.254 36.4371 53.4008C36.4371 49.5175 33.2778 46.3583 29.3947 46.3583H26.8348V38.9971V19.7923C26.8348 18.3977 27.9623 17.2324 29.3947 17.2324H31.9546V19.7923C31.9546 23.6645 35.0855 26.8347 38.9971 26.8347H53.4005C57.2727 26.8347 60.443 23.7041 60.443 19.7923V17.2324H63.0029C64.4144 17.2324 65.5629 18.3808 65.5629 19.7923V31.9546H53.4006C52.1629 31.9546 51.1594 32.9581 51.1594 34.1958C51.1594 42.0501 57.5494 48.4399 65.4037 48.4399H65.5629V82.2077ZM84.7676 67.9634H79.807C78.5693 67.9634 77.5658 68.9669 77.5658 70.2046C77.5658 72.94 75.3404 75.1652 72.6053 75.1652H70.0454V46.1989C70.0454 44.9611 69.0419 43.9577 67.8042 43.9577H65.4035C60.792 43.9577 56.9168 40.743 55.9012 36.4372H72.6053C75.3472 36.4372 77.5658 38.6547 77.5658 41.3978V51C77.5658 52.2377 78.5693 53.2412 79.807 53.2412H84.7676V67.9634Z"/>
</mask>
<path d="M87.0088 48.7588H82.0482V41.3976C82.0482 36.182 77.8285 31.9546 72.6053 31.9546H70.0454V19.7923C70.0454 15.9092 66.886 12.75 63.0029 12.75H58.2018H34.1958H29.3947C25.5366 12.75 22.3524 15.868 22.3524 19.7923V36.7558H19.7925C15.9286 36.7559 12.75 39.8787 12.75 43.7982C12.75 46.3432 14.1071 48.577 16.1354 49.8144C15.5107 50.8655 15.1505 52.0916 15.1505 53.4006C15.1505 55.9438 16.5058 58.1762 18.5317 59.4143C17.8927 60.489 17.5511 61.7194 17.5511 63.003C17.5511 65.702 19.03 67.859 20.9348 69.0222C20.3111 70.0727 19.9516 71.2976 19.9516 72.6054C19.9516 74.7114 20.8822 76.6033 22.3521 77.8948V82.2077C22.3524 86.0908 25.5116 89.25 29.3947 89.25H63.0029C64.8852 89.25 66.6538 88.517 67.9812 87.1878C69.3122 85.8583 70.0452 84.0897 70.0452 82.2075V79.6476H72.6053C77.0403 79.6476 80.7708 76.5745 81.7796 72.4458H87.0088C88.2465 72.4458 89.25 71.4424 89.25 70.2046V51C89.25 49.7623 88.2465 48.7588 87.0088 48.7588ZM36.4371 17.2324H55.9605V19.7923C55.9605 21.1874 54.8326 22.3522 53.4005 22.3522H38.9971C37.5991 22.3522 36.4371 21.2216 36.4371 19.7923V17.2324ZM17.2324 43.7982C17.2324 42.403 18.3608 41.2383 19.7925 41.2383H22.3524V46.3583H19.7925C18.381 46.3582 17.2324 45.2098 17.2324 43.7982ZM19.6329 53.4006C19.6329 51.989 20.7815 50.8406 22.193 50.8406H29.3947C30.8062 50.8406 31.9546 51.989 31.9546 53.4006C31.9546 54.8121 30.8062 55.9605 29.3947 55.9605H22.193C20.7815 55.9605 19.6329 54.8121 19.6329 53.4006V53.4006ZM22.0337 63.0029C22.0337 61.6075 23.1619 60.443 24.5936 60.443H29.3947C30.7929 60.443 31.9546 61.5736 31.9546 63.0029C31.9546 64.4011 30.8243 65.5628 29.3947 65.5628H24.5936C23.1954 65.5629 22.0337 64.4323 22.0337 63.0029V63.0029ZM24.4342 72.6053C24.4342 71.1938 25.5826 70.0454 26.9941 70.0454C28.4056 70.0454 29.5542 71.1938 29.5542 72.6053C29.5542 74.0168 28.4056 75.1652 26.9941 75.1652C25.5826 75.1652 24.4342 74.0168 24.4342 72.6053ZM65.5629 82.2077C65.5629 83.6027 64.435 84.7676 63.0029 84.7676H29.3947C27.9832 84.7676 26.8347 83.6192 26.8347 82.2077V79.6437C26.8879 79.6449 26.9406 79.6478 26.9939 79.6478C30.8771 79.6478 34.0364 76.4885 34.0364 72.6054C34.0364 71.2978 33.6769 70.073 33.0534 69.0225C34.4237 68.1858 36.4371 66.2147 36.4371 63.003C36.4371 61.2018 35.7642 59.5057 34.5419 58.2C35.7163 56.9413 36.4371 55.254 36.4371 53.4008C36.4371 49.5175 33.2778 46.3583 29.3947 46.3583H26.8348V38.9971V19.7923C26.8348 18.3977 27.9623 17.2324 29.3947 17.2324H31.9546V19.7923C31.9546 23.6645 35.0855 26.8347 38.9971 26.8347H53.4005C57.2727 26.8347 60.443 23.7041 60.443 19.7923V17.2324H63.0029C64.4144 17.2324 65.5629 18.3808 65.5629 19.7923V31.9546H53.4006C52.1629 31.9546 51.1594 32.9581 51.1594 34.1958C51.1594 42.0501 57.5494 48.4399 65.4037 48.4399H65.5629V82.2077ZM84.7676 67.9634H79.807C78.5693 67.9634 77.5658 68.9669 77.5658 70.2046C77.5658 72.94 75.3404 75.1652 72.6053 75.1652H70.0454V46.1989C70.0454 44.9611 69.0419 43.9577 67.8042 43.9577H65.4035C60.792 43.9577 56.9168 40.743 55.9012 36.4372H72.6053C75.3472 36.4372 77.5658 38.6547 77.5658 41.3978V51C77.5658 52.2377 78.5693 53.2412 79.807 53.2412H84.7676V67.9634Z" fill="#82DE00" stroke="#414664" stroke-width="2" mask="url(#path-1-inside-1)"/>
<path d="M40.6592 76.2031H50.9814C52.1289 76.2031 52.8906 76.956 52.8906 77.6953C52.8906 78.4347 52.1289 79.1875 50.9814 79.1875H40.6592C39.5117 79.1875 38.75 78.4347 38.75 77.6953C38.75 76.956 39.5117 76.2031 40.6592 76.2031Z" fill="#82DE00" stroke="#414664"/>
</svg>
