<svg width="35" height="35" viewBox="0 0 35 35" fill="none" xmlns="http://www.w3.org/2000/svg">
<path d="M27.2944 21.1516C25.8658 21.1516 24.4631 20.9282 23.1339 20.4889C22.4826 20.2668 21.6819 20.4706 21.2844 20.8788L18.6608 22.8594C15.6182 21.2352 13.744 19.3616 12.142 16.3418L14.0643 13.7866C14.5637 13.2878 14.7428 12.5593 14.5282 11.8757C14.087 10.5395 13.8629 9.13748 13.8629 7.70832C13.863 6.67588 13.0231 5.83594 11.9907 5.83594H7.70562C6.67324 5.83594 5.8333 6.67588 5.8333 7.70825C5.8333 19.542 15.4606 29.1693 27.2944 29.1693C28.3268 29.1693 29.1667 28.3293 29.1667 27.2969V23.0239C29.1666 21.9915 28.3267 21.1516 27.2944 21.1516Z" fill="#F7F7F7"/>
</svg>
